<?xml version="1.0" encoding="utf-8"?>
<!-- Generator: Adobe Illustrator 27.0.0, SVG Export Plug-In . SVG Version: 6.00 Build 0)  -->
<svg version="1.1" id="Layer_1" xmlns="http://www.w3.org/2000/svg" xmlns:xlink="http://www.w3.org/1999/xlink" x="0px" y="0px"
	 viewBox="0 0 816.47 197.65" style="enable-background:new 0 0 816.47 197.65;" xml:space="preserve">
<style type="text/css">
	.st0{fill:#005EFF;stroke:#005EFF;stroke-width:6;stroke-miterlimit:10;}
</style>
<g>
	<g>
		<path class="st0" d="M34.13,164.53c1.92-2.07,3.7-4.34,5.34-6.78c1.63-2.45,2.89-4.48,3.78-6.11c0.89-1.48,2.48-4.19,4.78-8.12
			c2.3-3.93,4.96-8.52,8-13.79c3.04-5.26,6.23-10.9,9.56-16.9c3.33-6,6.56-11.75,9.67-17.23c3.11-5.48,5.85-10.49,8.23-15.01
			c2.37-4.52,4.08-7.89,5.11-10.12c0-0.44-0.22-0.74-0.67-0.89c-0.44-0.15-0.82-0.22-1.11-0.22c-4.75,0-9.42,0.44-14.01,1.33
			c-4.6,0.89-9.27,1.41-14.01,1.56c-2.67,0-4-1.18-4-3.56c0-0.3,0.07-0.89,0.22-1.78c0.15-0.89,0.44-1.33,0.89-1.33
			c0.29,0,1.45,0.44,3.45,1.33c2,0.89,4.04,1.33,6.11,1.33c2.67,0,6.15-0.11,10.45-0.33c4.3-0.22,8-0.48,11.12-0.78
			c3.7-0.15,7.34-0.3,10.9-0.44c3.56-0.15,7.19-0.22,10.9-0.22c5.78,0,11.52,0.37,17.23,1.11c5.7,0.74,10.82,2.22,15.34,4.45
			c4.52,2.22,8.23,5.37,11.12,9.45c2.89,4.08,4.34,9.45,4.34,16.12c0,6.23-1.15,12.49-3.45,18.79c-2.3,6.3-5.37,12.23-9.23,17.79
			c-3.86,5.56-8.34,10.56-13.45,15.01c-5.11,4.45-10.49,7.93-16.12,10.45c-5.64,2.52-11.45,4.34-17.46,5.45
			c-6,1.11-12.12,1.67-18.34,1.67c-5.04,0-9.86-0.33-14.45-1c-4.6-0.67-9.12-2.19-13.56-4.56c-1.48-0.74-2.74-1.11-3.78-1.11
			c-1.19,0-2.89,0.52-5.11,1.56c-2.22,1.04-4.37,2.37-6.45,4L34.13,164.53z M145.31,96.27c0-3.26-0.56-6.52-1.67-9.78
			c-1.11-3.26-3.11-6.23-6-8.89c-2.89-2.67-6.78-4.81-11.67-6.45c-4.89-1.63-11.19-2.45-18.9-2.45c-1.63,0-3,0.08-4.11,0.22
			c-1.11,0.15-2.11,0.97-3,2.45c-3.71,5.78-7.64,12.16-11.78,19.12c-4.15,6.97-8.27,14.08-12.34,21.35
			c-4.08,7.26-7.97,14.34-11.67,21.24c-3.71,6.89-6.89,13.08-9.56,18.57c-0.59,1.19-0.89,2.08-0.89,2.67c0,0.89,0.44,1.78,1.33,2.67
			c2.52,2.67,5.97,4.67,10.34,6c4.37,1.33,8.86,2,13.45,2c9.04,0,17.57-1.78,25.57-5.34c8-3.56,15.04-8.41,21.12-14.56
			c6.08-6.15,10.9-13.41,14.45-21.79C143.53,114.91,145.31,105.9,145.31,96.27z"/>
		<path class="st0" d="M268.71,85.15c0,3.71-1.15,7.75-3.45,12.12c-2.3,4.37-5.6,8.45-9.9,12.23c-4.3,3.78-9.53,6.89-15.68,9.34
			c-6.15,2.45-13.16,3.67-21.01,3.67c-3.71,0-6.97-0.52-9.78-1.56c-0.44-0.3-0.67-0.59-0.67-0.89c0-0.59,0.3-0.89,0.89-0.89
			c0.74,0.3,2.11,0.59,4.11,0.89c2,0.3,3.89,0.44,5.67,0.44c5.63,0,10.86-1.11,15.68-3.33c4.82-2.22,8.97-5.11,12.45-8.67
			c3.48-3.56,6.23-7.56,8.23-12.01c2-4.45,3-8.89,3-13.34c0-6.23-1.89-10.45-5.67-12.67s-8.34-3.33-13.67-3.33
			c-3.71,0-7.04,0.37-10.01,1.11c-1.93,0.59-3.41,1.86-4.45,3.78c-2.82,4.75-6.19,10.42-10.12,17.01
			c-3.93,6.6-7.89,13.42-11.9,20.46c-4,7.04-7.86,13.9-11.56,20.57c-3.71,6.67-6.82,12.45-9.34,17.34c-1.63,3.26-2.45,5.93-2.45,8
			c0,2.82,1.19,4.78,3.56,5.89c2.37,1.11,5.93,1.67,10.67,1.67c1.63,0,2.45,0.22,2.45,0.67c0,0.44-0.37,0.74-1.11,0.89
			c-2.67,0.44-5.67,0.81-9.01,1.11c-3.34,0.29-6.64,0.44-9.89,0.44c-0.59,0-1.52-0.08-2.78-0.22c-1.26-0.15-2.48-0.41-3.67-0.78
			c-1.19-0.37-2.22-0.89-3.11-1.56c-0.89-0.67-1.33-1.59-1.33-2.78c0-0.89,0.37-2.22,1.11-4c2.07-4.59,4.82-9.78,8.23-15.57
			c3.41-5.78,6.67-11.26,9.78-16.45c3.7-6.23,7.71-13.15,12.01-20.79c4.3-7.63,8.08-14.49,11.34-20.57c0.29-0.44,0.74-1.3,1.33-2.56
			c0.59-1.26,1.18-2.56,1.78-3.89c0.59-1.33,1.11-2.59,1.56-3.78c0.44-1.19,0.67-2,0.67-2.45c0-0.59-0.37-0.89-1.11-0.89
			c-4.75,0.15-9.38,0.52-13.9,1.11c-4.52,0.59-9.15,0.89-13.9,0.89c-2.82,0-4.22-0.81-4.22-2.45c0-0.3,0.26-1.07,0.78-2.33
			c0.52-1.26,1-1.89,1.45-1.89c0.3,0,0.52,0.3,0.67,0.89c0.15,0.74,1.04,1.26,2.67,1.56c1.33,0.3,2.96,0.48,4.89,0.56
			c1.92,0.08,3.78,0.11,5.56,0.11c4.45,0,8.97-0.15,13.56-0.44c4.59-0.3,8.93-0.67,13.01-1.11c4.08-0.44,7.71-0.81,10.9-1.11
			c3.19-0.3,5.67-0.44,7.45-0.44c3.26,0,6.56,0.3,9.89,0.89c3.34,0.59,6.37,1.67,9.12,3.22c2.74,1.56,4.96,3.63,6.67,6.23
			C267.86,78.07,268.71,81.3,268.71,85.15z"/>
		<path class="st0" d="M335.42,74.7c-0.59,1.48-1.3,3.41-2.11,5.78c-0.82,2.37-1.45,4.37-1.89,6c-0.59,0.3-1.11,0.08-1.56-0.67
			c0.44-0.89,0.67-2,0.67-3.33c0-2.67-1.3-5.19-3.89-7.56c-2.6-2.37-6.71-3.56-12.34-3.56c-5.93,0-10.75,1.74-14.45,5.23
			c-3.71,3.48-5.56,8.12-5.56,13.9c0,4.45,1.04,8.6,3.11,12.45c2.07,3.86,4.37,7.41,6.89,10.67c1.92,2.52,3.52,4.63,4.78,6.34
			c1.26,1.71,2.26,3.26,3,4.67c0.74,1.41,1.26,2.75,1.56,4c0.3,1.26,0.44,2.78,0.44,4.56c0,3.11-0.71,6.15-2.11,9.12
			c-1.41,2.97-3.26,5.71-5.56,8.23c-2.3,2.52-4.82,4.78-7.56,6.78c-2.74,2-5.45,3.6-8.12,4.78c-6.67,2.96-14.08,4.45-22.24,4.45
			c-3.41,0-6.78-0.3-10.12-0.89c-3.34-0.59-6.41-1.56-9.23-2.89c-0.74-0.44-1.41-0.85-2-1.22c-0.59-0.37-0.97-0.78-1.11-1.22
			c0.59-2.52,1.3-5.37,2.11-8.56c0.81-3.19,1.52-5.82,2.11-7.89c0-0.3,0.22-0.45,0.67-0.45c0.44,0,0.67,0.37,0.67,1.11
			c-0.44,1.33-0.67,2.67-0.67,4c0,4.15,1.7,7.82,5.11,11.01c3.41,3.19,8.67,4.78,15.79,4.78c2.67,0,5.37-0.26,8.12-0.78
			c2.74-0.52,5.23-1.3,7.45-2.33c4.59-2.07,8.48-5,11.67-8.78c3.19-3.78,4.78-8.26,4.78-13.45c0-2.52-0.59-5.08-1.78-7.67
			c-1.19-2.59-3.48-6.04-6.89-10.34c-2.97-3.85-5.23-7.26-6.78-10.23c-1.56-2.96-2.33-6.37-2.33-10.23c0-3.85,0.85-7.71,2.56-11.56
			c1.7-3.85,3.81-7.26,6.34-10.23c0.89-1.04,2.11-2.26,3.67-3.67c1.56-1.41,3.41-2.7,5.56-3.89c2.15-1.18,4.67-2.22,7.56-3.11
			c2.89-0.89,6.11-1.33,9.67-1.33c2.37,0,4.67,0.33,6.89,1s4.22,1.97,6,3.89C335.04,72.62,335.42,73.66,335.42,74.7z"/>
		<path class="st0" d="M355.65,171.64c0.15-2.67,1.15-5.08,3-7.23c1.85-2.15,4.34-4.7,7.45-7.67
			c28.46-26.53,51.44-47.47,68.93-62.81c17.49-15.34,28.68-24.72,33.58-28.13c1.18-0.74,2.96-1.41,5.34-2
			c2.37-0.59,4-1.33,4.89-2.22c0.89-0.89,1.37-1,1.45-0.33c0.07,0.67-0.04,1.3-0.33,1.89c-1.48,2.22-2.67,4.78-3.56,7.67
			c-0.89,2.89-1.48,5.3-1.78,7.23c-0.15,0.59-0.56,2.56-1.22,5.89c-0.67,3.33-1.45,7.41-2.33,12.23
			c-0.89,4.82-1.82,10.01-2.78,15.56c-0.97,5.56-1.89,10.9-2.78,16.01c-0.89,5.11-1.59,9.71-2.11,13.79c-0.52,4.08-0.85,6.93-1,8.56
			c0,2.52,0.26,4.49,0.78,5.89c0.52,1.41,1.15,2.45,1.89,3.11c0.74,0.67,1.48,1.08,2.22,1.22c0.74,0.15,1.33,0.22,1.78,0.22
			c0.74,0,1.63-0.11,2.67-0.33c1.04-0.22,2.15-0.48,3.34-0.78c1.18-0.3,1.81-0.22,1.89,0.22c0.07,0.45-0.48,0.82-1.67,1.11
			c-0.59,0.15-1.67,0.44-3.22,0.89c-1.56,0.44-3.34,0.97-5.34,1.56c-2,0.59-4,1.15-6,1.67c-2,0.52-3.75,0.92-5.23,1.22
			c-2.22,0-3.71-1.48-4.45-4.45c0.15-0.89,0.45-2.78,0.89-5.67s0.92-5.97,1.45-9.23c0.52-3.26,1-6.34,1.45-9.23
			c0.44-2.89,0.67-4.78,0.67-5.67c0-1.63-0.78-3.3-2.33-5c-1.56-1.7-3.82-2.92-6.78-3.67c-1.04-0.29-3.04-0.52-6-0.67
			c-2.97-0.15-6.52-0.22-10.67-0.22c-4.3,0-8.53-0.04-12.67-0.11c-4.15-0.07-7.26-0.26-9.34-0.56
			c-11.27,10.23-20.72,19.57-28.35,28.02c-7.64,8.45-13.38,15.49-17.23,21.12c-1.19,1.92-2.04,3.67-2.56,5.23
			c-0.52,1.56-0.93,3.59-1.22,6.11c-0.3,0.89-0.74,1.11-1.33,0.67L355.65,171.64z M413.02,117.39c0.15,0.89,1.11,1.56,2.89,2
			c1.78,0.44,3.89,0.74,6.34,0.89c2.45,0.15,5,0.22,7.67,0.22c2.67,0,4.89,0,6.67,0c4.74,0,8.6,0.04,11.56,0.11
			c2.96,0.08,5.04,0.26,6.23,0.56c1.48,0.45,2.33,0.63,2.56,0.56c0.22-0.07,0.48-0.63,0.78-1.67c0.59-2.96,1.33-6.97,2.22-12.01
			c0.89-5.04,1.78-10.08,2.67-15.12c0.89-5.04,1.67-9.45,2.33-13.23c0.67-3.78,1.07-5.97,1.22-6.56c0.29-1.19,0.29-1.81,0-1.89
			c-0.3-0.07-1.04,0.33-2.22,1.22c-0.44,0.3-1.71,1.3-3.78,3c-2.08,1.71-4.71,3.89-7.89,6.56c-3.19,2.67-6.67,5.6-10.45,8.78
			c-3.78,3.19-7.49,6.38-11.12,9.56c-3.63,3.19-7,6.26-10.12,9.23C417.46,112.57,414.94,115.17,413.02,117.39z"/>
		<path class="st0" d="M536.65,119.61c-0.89,1.04-1.82,2.3-2.78,3.78c-0.97,1.48-1.6,2.6-1.89,3.33c-0.15,0.45-0.45,0.67-0.89,0.67
			c-0.15,0-0.37-0.22-0.67-0.67c-0.3-0.44-0.71-0.92-1.22-1.45c-0.52-0.52-1.22-1-2.11-1.44c-0.89-0.45-2.15-0.67-3.78-0.67
			c-1.93,0-4.08,0.67-6.45,2s-4.45,2.82-6.22,4.45c-2.82,2.37-5.3,4.97-7.45,7.78c-2.15,2.82-4.19,5.75-6.12,8.78
			c-1.93,3.04-3.78,6.15-5.56,9.34c-1.78,3.19-3.71,6.41-5.78,9.67c-0.15,0.44-0.59,0.67-1.33,0.67c-0.3,0-0.93-0.45-1.89-1.33
			c-0.97-0.89-1.45-1.56-1.45-2c0-0.89,0.52-2.22,1.56-4c2.37-4.15,4.78-8.34,7.23-12.56c2.45-4.23,4.74-8.19,6.89-11.9
			c2.15-3.7,4.04-6.93,5.67-9.67c1.63-2.74,2.74-4.78,3.33-6.12c0.74-1.33,1.26-2,1.56-2c0.29,0,1.04,0.37,2.22,1.11
			c1.18,0.74,1.78,1.78,1.78,3.11c0,0.45-0.26,1.19-0.78,2.22c-0.52,1.04-1.11,2.11-1.78,3.22c-0.67,1.11-1.3,2.19-1.89,3.22
			c-0.59,1.04-1.04,1.78-1.33,2.22c-0.45,0.74-0.52,1.11-0.22,1.11c0.29,0,0.67-0.22,1.11-0.67c1.48-1.48,3.3-3.11,5.45-4.89
			c2.15-1.78,4.41-3.45,6.78-5c2.37-1.56,4.71-2.85,7-3.89c2.3-1.04,4.34-1.56,6.12-1.56c1.33,0,2.48,0.33,3.45,1
			C536.16,118.17,536.65,118.87,536.65,119.61z"/>
		<path class="st0" d="M588.67,135.18c-2.22,2.82-4.75,5.67-7.56,8.56c-2.82,2.89-5.71,5.63-8.67,8.23c-2.97,2.6-6,4.93-9.12,7
			c-3.11,2.08-6.08,3.71-8.89,4.89c-2.22,0.89-4.26,1.52-6.12,1.89c-1.86,0.37-3.6,0.56-5.23,0.56c-8.15,0-12.23-3.41-12.23-10.23
			c0-2.67,0.59-5.48,1.78-8.45c2.81-6.97,6.78-13.15,11.9-18.57c5.11-5.41,10.63-9.37,16.57-11.9c1.78-0.74,3.26-1.11,4.45-1.11
			c5.48,0,8.23,2.15,8.23,6.45c0,2.22-0.52,3.93-1.56,5.11c-0.89,0.89-2.37,2.15-4.45,3.78l-0.67-0.22
			c0.44-1.18,0.67-2.45,0.67-3.78c0-1.48-0.56-2.89-1.67-4.23c-1.11-1.33-2.86-2-5.23-2c-2.82,0-5.52,0.93-8.12,2.78
			c-2.6,1.86-4.89,4.3-6.89,7.34c-2,3.04-3.6,6.52-4.78,10.45c-1.19,3.93-1.78,7.97-1.78,12.12c0,3.11,0.85,5.45,2.56,7
			c1.7,1.56,3.81,2.33,6.34,2.33c4.15,0,9.75-2.41,16.79-7.23c7.04-4.82,14.56-12.12,22.57-21.9c0.74-0.74,1.3-0.92,1.67-0.56
			C589.6,133.88,589.41,134.44,588.67,135.18z"/>
		<path class="st0" d="M654.71,134.51c-3.41,4.15-7.15,8.34-11.23,12.56c-4.08,4.22-8.19,8.04-12.34,11.45
			c-4.15,3.41-8.27,6.15-12.34,8.23c-4.08,2.07-7.82,3.11-11.23,3.11c-2.97,0-5.04-0.74-6.23-2.22c-1.19-1.48-1.78-3.33-1.78-5.56
			c0-2.07,0.63-4.85,1.89-8.34c1.26-3.48,3.15-7.23,5.67-11.23c-1.93,2.52-4.15,5.19-6.67,8c-2.52,2.82-5.11,5.38-7.78,7.67
			c-2.67,2.3-5.34,4.23-8,5.78c-2.67,1.56-5.04,2.33-7.12,2.33c-3.11,0-4.67-1.56-4.67-4.67c0-3.41,1.33-7.71,4-12.9
			c2.67-5.19,6.26-10.19,10.78-15.01c4.52-4.82,9.67-8.97,15.45-12.45c5.78-3.48,11.78-5.23,18.01-5.23c0.74-1.48,1.41-2.52,2-3.11
			c0.59-0.59,1.18-1.04,1.78-1.33l6.23-1.78l0.44,0.22c-0.74,0.74-1.45,1.67-2.11,2.78c-0.67,1.11-1.37,2.26-2.11,3.45
			c0.74,0,1.85,0.08,3.33,0.22c1.48,0.15,2.59,0.3,3.34,0.44c0.74,0.3,1.11,0.67,1.11,1.11c0,0.44-0.22,0.67-0.67,0.67
			c-0.89-0.3-2.22-0.52-4-0.67c-1.78-0.15-3.11-0.22-4-0.22c-6.82,12.01-11.82,21.53-15.01,28.57c-3.19,7.04-4.78,12.27-4.78,15.68
			c0,1.33,0.33,2.45,1,3.33c0.67,0.89,2.04,1.33,4.11,1.33c2.37,0,5.19-0.86,8.45-2.56c3.26-1.7,6.74-4.08,10.45-7.12
			c3.7-3.04,7.52-6.56,11.45-10.56c3.93-4,7.67-8.23,11.23-12.67c0.29-0.45,0.59-0.56,0.89-0.33
			C654.56,133.73,654.71,134.07,654.71,134.51z M620.02,117.61c-5.04,0-9.86,1.78-14.45,5.34c-4.6,3.56-8.67,7.75-12.23,12.56
			c-3.56,4.82-6.41,9.6-8.56,14.34c-2.15,4.75-3.22,8.23-3.22,10.45c0,1.19,0.44,1.78,1.33,1.78s2.26-0.59,4.11-1.78
			c1.85-1.19,3.96-2.78,6.34-4.78c2.37-2,4.78-4.34,7.23-7c2.45-2.67,4.7-5.56,6.78-8.67c2.37-3.56,4.67-7.34,6.89-11.34
			c2.22-4,4.23-7.56,6-10.67L620.02,117.61z"/>
		<path class="st0" d="M782.34,17.11c0,0.89-0.44,1.78-1.33,2.67c-0.89,0.89-1.48,2.15-1.78,3.78c-0.3,1.04-0.82,1.56-1.56,1.56
			c-0.45,0-0.89-0.11-1.33-0.33c-0.44-0.22-1-0.48-1.67-0.78c-0.67-0.3-1.48-0.56-2.45-0.78c-0.97-0.22-2.33-0.33-4.11-0.33
			c-2.52,0-5.04,0.33-7.56,1c-2.52,0.67-4.82,1.67-6.89,3c-4.15,2.67-8.64,6.45-13.45,11.34c-4.82,4.89-9.23,10.23-13.23,16.01
			c-9.93,14.23-18.64,27.54-26.13,39.91c-7.49,12.38-13.75,23.46-18.79,33.24c-5.04,9.78-8.82,18.12-11.34,25.01
			c-2.52,6.89-3.78,11.97-3.78,15.23c0,2.52,0.56,4.59,1.67,6.23c1.11,1.63,2.93,2.45,5.45,2.45c4,0,7.82-1.26,11.45-3.78
			c3.63-2.52,7.08-5.67,10.34-9.45c3.26-3.78,6.23-7.97,8.89-12.56c2.67-4.59,4.96-8.89,6.89-12.9c0.29-0.59,0.78-0.81,1.45-0.67
			c0.67,0.15,0.63,0.74-0.11,1.78c-2.67,5.34-5.52,10.42-8.56,15.23c-3.04,4.82-6.23,9.04-9.56,12.67
			c-3.33,3.63-6.82,6.48-10.45,8.56c-3.63,2.07-7.23,3.11-10.78,3.11c-4,0-6.97-1.08-8.89-3.22c-1.93-2.15-2.89-4.93-2.89-8.34
			c0-3.56,0.7-7.37,2.11-11.45c1.41-4.08,3.59-9.08,6.56-15.01c-4.15,5.04-7.78,9.27-10.89,12.67c-3.11,3.41-5.86,6.08-8.23,8
			c-2.37,1.93-4.41,3.3-6.11,4.11c-1.71,0.81-3.22,1.22-4.56,1.22c-2.08,0-3.48-0.56-4.22-1.67c-0.74-1.11-1.11-2.56-1.11-4.33
			c0-1.33,0.37-3.08,1.11-5.23c0.74-2.15,1.78-4.26,3.11-6.34c5.48-8.89,11.6-16.16,18.34-21.79c6.74-5.63,15.08-9.34,25.01-11.12
			c7.12-12.45,13.93-23.64,20.46-33.58c6.52-9.93,13.64-19.64,21.35-29.13c6.37-8,12.71-15.04,19.01-21.12
			c6.3-6.08,12.79-10.67,19.46-13.79c5.04-2.37,9.41-3.56,13.12-3.56c1.78,0,3.22,0.22,4.34,0.67
			C781.79,15.77,782.34,16.37,782.34,17.11z M681.17,119.17c-5.63,0.15-9.97,1.22-13.01,3.22c-3.04,2-5.75,4.48-8.12,7.45
			c-5.64,6.97-9.64,12.93-12.01,17.9c-2.37,4.97-3.56,8.64-3.56,11.01c0,0.74,0.29,1.26,0.89,1.56c0.59,0.3,1.04,0.44,1.33,0.44
			c1.04,0,2.92-1.11,5.67-3.33c2.74-2.22,5.78-5.23,9.12-9.01s6.78-8.19,10.34-13.23C675.39,130.14,678.5,124.8,681.17,119.17z"/>
		<path class="st0" d="M757.88,138.51c-2.52,3.11-5.52,6.34-9,9.67c-3.48,3.34-7.26,6.38-11.34,9.12c-4.08,2.74-8.3,4.97-12.67,6.67
			c-4.37,1.7-8.71,2.56-13.01,2.56c-6.97,0-10.45-3.11-10.45-9.34c0-4.15,1.07-8.63,3.22-13.45c2.15-4.82,4.93-9.26,8.34-13.34
			c3.41-4.08,7.15-7.48,11.23-10.23c4.08-2.74,7.97-4.11,11.67-4.11c2.07,0,3.52,0.37,4.34,1.11c0.81,0.74,1.22,1.71,1.22,2.89
			c0,1.78-0.56,3.71-1.67,5.78c-1.11,2.08-2.78,4.04-5,5.89c-2.22,1.86-5.04,3.41-8.45,4.67c-3.41,1.26-7.49,1.89-12.23,1.89
			c-0.74,1.33-1.56,3.45-2.45,6.34s-1.33,5.82-1.33,8.78c0,6.08,2.74,9.12,8.23,9.12c3.41,0,6.93-0.81,10.56-2.45
			c3.63-1.63,7.15-3.67,10.56-6.12c3.41-2.45,6.56-5.11,9.45-8s5.3-5.59,7.23-8.12c0.29-0.29,0.63-0.37,1-0.22
			C757.69,137.77,757.88,138.07,757.88,138.51z M734.53,121.17c0-1.92-0.97-2.89-2.89-2.89c-1.48,0-3,0.56-4.56,1.67
			c-1.56,1.11-3.08,2.56-4.56,4.34c-1.48,1.78-2.89,3.71-4.22,5.78c-1.33,2.08-2.45,4.08-3.34,6c0.3,0.15,0.81,0.26,1.56,0.33
			c0.74,0.08,1.33,0.11,1.78,0.11c4.3,0,8.08-1.52,11.34-4.56C732.9,128.92,734.53,125.32,734.53,121.17z"/>
	</g>
</g>
</svg>
